<?xml version="1.0" encoding="UTF-8"?>
<!-- Generator: Adobe Illustrator 15.0.2, SVG Export Plug-In . SVG Version: 6.00 Build 0)  -->
<!DOCTYPE svg PUBLIC "-//W3C//DTD SVG 1.1//EN" "http://www.w3.org/Graphics/SVG/1.1/DTD/svg11.dtd">
<svg xmlns="http://www.w3.org/2000/svg" xmlns:xlink="http://www.w3.org/1999/xlink" version="1.1" id="Layer_1" x="0px" y="0px" width="511.998px" height="689.012px" viewBox="0 0 511.998 689.012" enable-background="new 0 0 511.998 689.012" xml:space="preserve">
<g>
	<path d="M4.236,352.303l234.142,327.266c4.229,5.924,11.079,9.426,18.359,9.443c0.052,0,0.052,0,0.052,0   c7.319-0.018,14.155-3.555,18.412-9.522l232.628-327.248c4.896-6.897,5.528-15.963,1.641-23.475   c-3.835-7.504-11.61-12.229-20.088-12.229H379.896l0.009-293.935C379.904,10.11,369.795,0,357.289,0L154.731,0.009   C142.248,0,132.13,10.11,132.121,22.62v293.896H22.612c-8.447,0-16.2,4.765-20.101,12.286   C-1.381,336.313-0.705,345.4,4.236,352.303z" fill="#000000"/>
</g>
</svg>
