<?xml version="1.0" encoding="utf-8"?>
<!-- Generator: Adobe Illustrator 15.1.0, SVG Export Plug-In . SVG Version: 6.00 Build 0)  -->
<!DOCTYPE svg PUBLIC "-//W3C//DTD SVG 1.1//EN" "http://www.w3.org/Graphics/SVG/1.1/DTD/svg11.dtd">
<svg version="1.1" id="Layer_1" xmlns="http://www.w3.org/2000/svg" xmlns:xlink="http://www.w3.org/1999/xlink" x="0px" y="0px"
	 width="300px" height="300px" viewBox="0 0 300 300" enable-background="new 0 0 300 300" xml:space="preserve">
<path fill="none" stroke="#010101" stroke-width="16" stroke-miterlimit="10" d="M172.059,254.295c0,0-5.334,15.334-21.334,0
	c-16-15.334-62.666-54.668-62.666-54.668h-60c0,0-11.333,0-10-19.332c1.333-19.334-0.109-68-0.109-68s-0.558-9.333,14.775-10
	s58.667,0,58.667,0l63.962-58.667c0,0,18.039-5.333,16.705,12.667S172.059,254.295,172.059,254.295z"/>
<g>
	<path fill="#010101" d="M193.551,122.666c1.717,0.117,3.335,0.539,4.9,1.069c1.573,0.527,3.07,1.217,4.53,2.005
		c2.888,1.606,5.576,3.673,7.899,6.22c2.326,2.539,4.299,5.564,5.679,8.98c1.384,3.406,2.146,7.211,2.102,11.028
		c-0.029,3.816-0.861,7.598-2.299,10.962c-1.435,3.375-3.426,6.354-5.754,8.848c-2.317,2.511-4.98,4.543-7.812,6.169
		c-1.435,0.795-2.9,1.503-4.44,2.073c-1.532,0.576-3.11,1.048-4.805,1.313c0.537-1.629,1.144-3.109,1.734-4.549l1.733-4.172
		c1.131-2.684,2.149-5.233,2.997-7.652c1.716-4.865,2.607-9.107,2.649-13.161c0.061-4.055-0.735-8.283-2.379-13.109
		c-0.819-2.396-1.811-4.919-2.964-7.55C196.185,128.48,194.909,125.764,193.551,122.666z"/>
</g>
</svg>
