<?xml version="1.0" encoding="utf-8"?>
<!-- Generator: Adobe Illustrator 15.1.0, SVG Export Plug-In . SVG Version: 6.00 Build 0)  -->
<!DOCTYPE svg PUBLIC "-//W3C//DTD SVG 1.1//EN" "http://www.w3.org/Graphics/SVG/1.1/DTD/svg11.dtd">
<svg version="1.1" id="Layer_1" xmlns="http://www.w3.org/2000/svg" xmlns:xlink="http://www.w3.org/1999/xlink" x="0px" y="0px"
	 width="300px" height="300px" viewBox="0 0 300 300" enable-background="new 0 0 300 300" xml:space="preserve">
<path fill="none" stroke="#010101" stroke-width="16" stroke-miterlimit="10" d="M172.059,254.295c0,0-5.334,15.334-21.334,0
	c-16-15.334-62.666-54.668-62.666-54.668h-60c0,0-11.333,0-10-19.332c1.333-19.334-0.109-68-0.109-68s-0.558-9.333,14.775-10
	s58.667,0,58.667,0l63.962-58.667c0,0,18.039-5.333,16.705,12.667S172.059,254.295,172.059,254.295z"/>
<g>
	<g>
		<path fill="#010101" d="M198.725,100.961c2.482,1.533,4.814,3.193,7.104,4.892c2.295,1.692,4.51,3.453,6.703,5.232
			c4.371,3.572,8.545,7.314,12.631,11.13c8.131,7.667,15.74,15.779,22.975,24.213c7.225,8.442,14.059,17.219,20.375,26.438
			c3.162,4.607,6.172,9.342,9.035,14.205c1.414,2.445,2.809,4.908,4.123,7.439c1.322,2.525,2.596,5.09,3.723,7.783
			c-2.486-1.531-4.822-3.188-7.111-4.885c-2.299-1.689-4.514-3.451-6.711-5.227c-4.359-3.582-8.57-7.291-12.631-11.129
			c-8.127-7.67-15.738-15.781-22.959-24.229c-7.211-8.454-14.045-17.23-20.357-26.453c-3.137-4.628-6.186-9.331-9.037-14.203
			c-1.418-2.443-2.812-4.904-4.129-7.434C201.133,106.213,199.855,103.65,198.725,100.961z"/>
	</g>
	<g>
		<path fill="#010101" d="M282.725,104.961c-1.076,2.608-2.301,5.09-3.57,7.532c-1.264,2.449-2.605,4.828-3.969,7.19
			c-2.742,4.709-5.682,9.248-8.709,13.711c-6.094,8.893-12.707,17.337-19.695,25.458c-6.998,8.113-14.387,15.889-22.287,23.223
			c-3.949,3.668-8.047,7.207-12.293,10.621c-2.139,1.691-4.297,3.365-6.537,4.971c-2.232,1.611-4.512,3.184-6.939,4.627
			c1.074-2.613,2.295-5.098,3.562-7.541c1.26-2.451,2.602-4.832,3.961-7.195c2.756-4.699,5.656-9.27,8.709-13.713
			c6.098-8.889,12.711-17.334,19.713-25.444c7.012-8.101,14.398-15.878,22.305-23.208c3.973-3.647,8.031-7.22,12.289-10.622
			c2.137-1.694,4.295-3.37,6.533-4.977C278.025,107.982,280.303,106.409,282.725,104.961z"/>
	</g>
</g>
</svg>
