<?xml version="1.0" encoding="utf-8"?>
<!-- Generator: Adobe Illustrator 15.1.0, SVG Export Plug-In . SVG Version: 6.00 Build 0)  -->
<!DOCTYPE svg PUBLIC "-//W3C//DTD SVG 1.1//EN" "http://www.w3.org/Graphics/SVG/1.1/DTD/svg11.dtd">
<svg version="1.1" id="Layer_1" xmlns="http://www.w3.org/2000/svg" xmlns:xlink="http://www.w3.org/1999/xlink" x="0px" y="0px"
	 width="300px" height="300px" viewBox="0 0 300 300" enable-background="new 0 0 300 300" xml:space="preserve">
<path fill="none" stroke="#010101" stroke-width="16" stroke-miterlimit="10" d="M172.059,254.295c0,0-5.334,15.334-21.334,0
	c-16-15.334-62.666-54.668-62.666-54.668h-60c0,0-11.333,0-10-19.332c1.333-19.334-0.109-68-0.109-68s-0.558-9.333,14.775-10
	s58.667,0,58.667,0l63.962-58.667c0,0,18.039-5.333,16.705,12.667S172.059,254.295,172.059,254.295z"/>
<g>
	<path fill="#010101" d="M193.551,122.666c1.717,0.117,3.335,0.539,4.9,1.069c1.573,0.527,3.07,1.217,4.53,2.005
		c2.888,1.606,5.576,3.673,7.899,6.22c2.326,2.539,4.299,5.564,5.679,8.98c1.384,3.406,2.146,7.211,2.102,11.028
		c-0.029,3.816-0.861,7.598-2.299,10.962c-1.435,3.375-3.426,6.354-5.754,8.848c-2.317,2.511-4.98,4.543-7.812,6.169
		c-1.435,0.795-2.9,1.503-4.44,2.073c-1.532,0.576-3.11,1.048-4.805,1.313c0.537-1.629,1.144-3.109,1.734-4.549l1.733-4.172
		c1.131-2.684,2.149-5.233,2.997-7.652c1.716-4.865,2.607-9.107,2.649-13.161c0.061-4.055-0.735-8.283-2.379-13.109
		c-0.819-2.396-1.811-4.919-2.964-7.55C196.185,128.48,194.909,125.764,193.551,122.666z"/>
</g>
<g>
	<path fill="#010101" d="M193.551,91.334c3.441,0.815,6.763,2.011,10.021,3.352c3.263,1.34,6.438,2.89,9.554,4.586
		c6.213,3.418,12.12,7.526,17.549,12.412c2.7,2.456,5.295,5.095,7.664,7.998c2.409,2.872,4.56,6.026,6.469,9.402
		c1.91,3.376,3.443,7.046,4.604,10.902c1.116,3.868,1.741,7.95,1.84,12.064c0.041,4.116-0.482,8.241-1.505,12.176
		c-1.082,3.921-2.592,7.658-4.493,11.089c-1.915,3.423-4.091,6.608-6.546,9.479c-1.219,1.44-2.469,2.833-3.774,4.154
		c-1.314,1.312-2.666,2.566-4.037,3.779c-5.531,4.806-11.529,8.773-17.786,12.075c-3.138,1.638-6.324,3.138-9.586,4.449
		c-3.256,1.32-6.563,2.492-9.972,3.414c2.52-2.475,5.068-4.822,7.574-7.174c2.499-2.361,4.976-4.688,7.371-7.058
		c4.801-4.714,9.372-9.489,13.377-14.476c1.005-1.241,1.973-2.498,2.884-3.775c0.926-1.266,1.819-2.535,2.646-3.83
		c1.631-2.603,3.141-5.2,4.302-7.879c1.18-2.665,2.142-5.343,2.703-8.056c0.627-2.694,0.915-5.41,0.849-8.126
		c-0.003-2.718-0.394-5.446-1.071-8.168c-0.629-2.74-1.658-5.443-2.857-8.147c-1.203-2.708-2.711-5.349-4.338-7.987
		c-1.669-2.609-3.487-5.202-5.46-7.729c-3.929-5.077-8.388-9.949-13.099-14.731C203.715,100.735,198.733,96.084,193.551,91.334z"/>
</g>
<g>
	<path fill="#010101" d="M193.551,64.666c5.137,1.408,10.168,3.204,15.1,5.229c4.943,2.012,9.787,4.276,14.554,6.73
		c9.514,4.938,18.667,10.733,27.201,17.587c4.252,3.442,8.361,7.139,12.182,11.207c3.856,4.034,7.393,8.465,10.552,13.265
		c3.158,4.799,5.801,10.067,7.785,15.693c1.938,5.639,3.074,11.685,3.211,17.8c0.094,6.115-0.863,12.24-2.67,17.978
		c-1.862,5.729-4.487,11.079-7.646,15.936c-3.18,4.845-6.765,9.288-10.689,13.292c-1.951,2.013-3.962,3.938-6.029,5.779
		c-2.084,1.823-4.205,3.58-6.367,5.261c-8.677,6.702-17.956,12.276-27.533,17.049c-9.6,4.737-19.465,8.764-29.649,11.863
		c8.631-6.226,17.25-12.221,25.505-18.546c8.256-6.304,16.229-12.827,23.438-19.874c7.186-7.041,13.697-14.58,18.395-22.769
		c2.335-4.087,4.259-8.295,5.465-12.616c1.274-4.298,1.896-8.687,1.789-13.075c-0.035-4.391-0.823-8.789-2.194-13.112
		c-1.326-4.344-3.329-8.574-5.69-12.703c-4.769-8.255-11.178-15.925-18.244-23.112c-7.084-7.196-14.897-13.896-23.039-20.32
		C210.82,76.779,202.327,70.656,193.551,64.666z"/>
</g>
</svg>
